<svg width="25" height="25" viewBox="0 0 25 25" fill="none" xmlns="http://www.w3.org/2000/svg">
<path d="M4.16663 7.90685C4.16663 7.08935 4.16663 6.6806 4.31887 6.31306C4.47111 5.94552 4.76014 5.65649 5.3382 5.07843L6.12005 4.29657C6.69811 3.71851 6.98714 3.42948 7.35469 3.27724C7.72223 3.125 8.13098 3.125 8.94848 3.125H16.0514C16.8689 3.125 17.2777 3.125 17.6452 3.27724C18.0128 3.42948 18.3018 3.71851 18.8799 4.29657L19.6617 5.07843C20.2398 5.65649 20.5288 5.94552 20.6811 6.31306C20.8333 6.6806 20.8333 7.08935 20.8333 7.90685V17.875C20.8333 19.7606 20.8333 20.7034 20.2475 21.2892C19.6617 21.875 18.7189 21.875 16.8333 21.875H8.16663C6.28101 21.875 5.3382 21.875 4.75241 21.2892C4.16663 20.7034 4.16663 19.7606 4.16663 17.875V7.90685Z" stroke="white" stroke-width="1.2"/>
<path d="M4.16663 7.29163H20.8333" stroke="white" stroke-width="1.2" stroke-linecap="round"/>
<path d="M9.375 11.4584C9.375 12.2872 9.70424 13.082 10.2903 13.6681C10.8763 14.2541 11.6712 14.5834 12.5 14.5834C13.3288 14.5834 14.1237 14.2541 14.7097 13.6681C15.2958 13.082 15.625 12.2872 15.625 11.4584" stroke="white" stroke-width="1.2" stroke-linecap="round"/>
</svg>
