<svg width="25" height="26" viewBox="0 0 25 26" fill="none" xmlns="http://www.w3.org/2000/svg">
<path d="M2.08337 13L1.30251 12.3753L0.802749 13L1.30251 13.6247L2.08337 13ZM11.4584 14C12.0107 14 12.4584 13.5522 12.4584 13C12.4584 12.4477 12.0107 12 11.4584 12V14ZM5.46917 7.16693L1.30251 12.3753L2.86424 13.6247L7.03091 8.41632L5.46917 7.16693ZM1.30251 13.6247L5.46917 18.833L7.03091 17.5836L2.86424 12.3753L1.30251 13.6247ZM2.08337 14H11.4584V12H2.08337V14Z" fill="white"/>
<path d="M10.4166 8.9708V8.05521C10.4166 6.43687 10.4166 5.6277 10.8906 5.06821C11.3645 4.50872 12.1627 4.37569 13.759 4.10964L15.9302 3.74777C19.1733 3.20726 20.7949 2.937 21.8558 3.8357C22.9166 4.73439 22.9166 6.37831 22.9166 9.66614V16.3339C22.9166 19.6218 22.9166 21.2657 21.8558 22.1644C20.7949 23.0631 19.1733 22.7928 15.9302 22.2523L13.759 21.8904C12.1627 21.6244 11.3645 21.4914 10.8906 20.9319C10.4166 20.3724 10.4166 19.5632 10.4166 17.9449V17.2354" stroke="white" stroke-width="2"/>
</svg>
