<svg width="25" height="26" viewBox="0 0 25 26" fill="none" xmlns="http://www.w3.org/2000/svg">
<circle cx="12.5" cy="8.83329" r="3.16667" stroke="white" stroke-width="2" stroke-linecap="round"/>
<path d="M15.8681 8.8125C16.1499 8.32442 16.614 7.96827 17.1584 7.82241C17.7028 7.67654 18.2828 7.7529 18.7709 8.0347C19.259 8.31649 19.6151 8.78063 19.761 9.32501C19.9068 9.86939 19.8305 10.4494 19.5487 10.9375C19.2669 11.4256 18.8027 11.7817 18.2584 11.9276C17.714 12.0735 17.134 11.9971 16.6459 11.7153C16.1578 11.4335 15.8016 10.9694 15.6558 10.425C15.5099 9.88061 15.5863 9.30058 15.8681 8.8125L15.8681 8.8125Z" stroke="white" stroke-width="2"/>
<path d="M5.45132 8.8125C5.73311 8.32442 6.19725 7.96827 6.74164 7.82241C7.28602 7.67654 7.86605 7.7529 8.35413 8.0347C8.8422 8.31649 9.19835 8.78063 9.34422 9.32501C9.49008 9.86939 9.41372 10.4494 9.13193 10.9375C8.85014 11.4256 8.386 11.7817 7.84162 11.9276C7.29724 12.0735 6.71721 11.9971 6.22913 11.7153C5.74105 11.4335 5.3849 10.9694 5.23903 10.425C5.09317 9.88061 5.16953 9.30058 5.45132 8.8125L5.45132 8.8125Z" stroke="white" stroke-width="2"/>
<path d="M17.5851 19.25L16.6047 19.4475L16.7664 20.25H17.5851V19.25ZM21.5995 18.1539L20.6546 18.4814V18.4814L21.5995 18.1539ZM15.3967 15.8235L14.7919 15.0272L13.6353 15.9056L14.8686 16.6727L15.3967 15.8235ZM20.7423 18.25H17.5851V20.25H20.7423V18.25ZM20.6546 18.4814C20.648 18.4623 20.6419 18.4259 20.6502 18.3815C20.658 18.3396 20.6754 18.3077 20.692 18.2873C20.7235 18.2481 20.7495 18.25 20.7423 18.25V20.25C21.89 20.25 23.0108 19.1723 22.5444 17.8264L20.6546 18.4814ZM17.7084 16.0834C19.4661 16.0834 20.2687 17.3678 20.6546 18.4814L22.5444 17.8264C22.0746 16.471 20.791 14.0834 17.7084 14.0834V16.0834ZM16.0016 16.6198C16.4092 16.3102 16.9512 16.0834 17.7084 16.0834V14.0834C16.5073 14.0834 15.5418 14.4575 14.7919 15.0272L16.0016 16.6198ZM14.8686 16.6727C15.9654 17.3548 16.4224 18.5419 16.6047 19.4475L18.5654 19.0526C18.3393 17.9298 17.711 16.0852 15.9249 14.9743L14.8686 16.6727Z" fill="white"/>
<path d="M9.60335 15.8235L10.1315 16.6727L11.3648 15.9056L10.2082 15.0272L9.60335 15.8235ZM3.40059 18.1539L2.45573 17.8264V17.8264L3.40059 18.1539ZM7.41499 19.25V20.25H8.23367L8.39531 19.4475L7.41499 19.25ZM7.29172 16.0834C8.0489 16.0834 8.59088 16.3102 8.9985 16.6198L10.2082 15.0272C9.45825 14.4575 8.49277 14.0834 7.29172 14.0834V16.0834ZM4.34545 18.4814C4.73137 17.3678 5.53397 16.0834 7.29172 16.0834V14.0834C4.20916 14.0834 2.9255 16.471 2.45573 17.8264L4.34545 18.4814ZM4.25782 18.25C4.2506 18.25 4.27654 18.2481 4.30812 18.2873C4.32464 18.3077 4.34206 18.3396 4.34989 18.3815C4.35816 18.4259 4.35207 18.4623 4.34545 18.4814L2.45573 17.8264C1.98929 19.1723 3.11003 20.25 4.25782 20.25V18.25ZM7.41499 18.25H4.25782V20.25H7.41499V18.25ZM8.39531 19.4475C8.57769 18.5419 9.03466 17.3548 10.1315 16.6727L9.07523 14.9743C7.28908 16.0852 6.6608 17.9298 6.43467 19.0526L8.39531 19.4475Z" fill="white"/>
<path d="M12.5 15.0834C16.2536 15.0834 17.302 17.7886 17.5948 19.2998C17.6999 19.842 17.2606 20.2917 16.7083 20.2917H8.29163C7.73934 20.2917 7.30004 19.842 7.40511 19.2998C7.69793 17.7886 8.74633 15.0834 12.5 15.0834Z" stroke="white" stroke-width="2" stroke-linecap="round"/>
</svg>
