<svg width="24" height="25" viewBox="0 0 24 25" fill="none" xmlns="http://www.w3.org/2000/svg">
<path fill-rule="evenodd" clip-rule="evenodd" d="M14.4553 2.97362C13.6944 2.66764 12.865 2.5 12 2.5C8.64394 2.5 5.82457 5.02345 5.45396 8.35899L5.20216 10.6252L5.19611 10.6793C5.08328 11.6625 4.76324 12.6106 4.25711 13.4611L4.22916 13.5077L3.65113 14.4711L3.62698 14.5114C3.38546 14.9138 3.16664 15.2785 3.02089 15.5879C2.87277 15.9024 2.7144 16.3286 2.79063 16.8117C2.86598 17.2893 3.11176 17.7233 3.48248 18.0337C3.85755 18.3476 4.30443 18.431 4.65032 18.4658C4.99069 18.5001 5.41594 18.5 5.88533 18.5L5.93223 18.5H18.0678L18.1147 18.5C18.5841 18.5 19.0093 18.5001 19.3497 18.4658C19.6956 18.431 20.1424 18.3476 20.5175 18.0337C20.8882 17.7233 21.134 17.2893 21.2094 16.8117C21.2856 16.3286 21.1272 15.9024 20.9791 15.5879C20.8334 15.2785 20.6145 14.9138 20.373 14.5114L20.3489 14.4711L19.7708 13.5077L19.7429 13.4611C19.3642 12.8247 19.0896 12.1336 18.9281 11.414C18.6274 11.4705 18.3171 11.5 18 11.5C17.616 11.5 17.2422 11.4567 16.883 11.3748C17.0676 12.4715 17.4541 13.5259 18.0242 14.4839L18.0559 14.5367L18.6339 15.5001C18.9074 15.956 19.0722 16.233 19.1697 16.4401C19.1751 16.4514 19.18 16.4621 19.1844 16.472C19.1736 16.4733 19.1619 16.4746 19.1495 16.4759C18.9217 16.4988 18.5994 16.5 18.0678 16.5H5.93223C5.40064 16.5 5.07826 16.4988 4.85052 16.4759C4.83806 16.4746 4.82642 16.4733 4.81555 16.472C4.82004 16.4621 4.82493 16.4514 4.83026 16.4401C4.92779 16.233 5.09261 15.956 5.36611 15.5001L5.94415 14.5367L5.97578 14.4839C6.62652 13.3904 7.038 12.1714 7.18307 10.9073L7.18992 10.8461L7.44173 8.57985C7.6998 6.25718 9.66304 4.5 12 4.5C12.463 4.5 12.9114 4.56898 13.3347 4.69767C13.5866 4.04594 13.9712 3.46023 14.4553 2.97362ZM16.9821 4.77804C16.3942 5.12632 16 5.76713 16 6.5C16 6.64503 16.0154 6.78645 16.0448 6.92272C16.1652 7.1476 16.2675 7.38404 16.3497 7.63021C16.7102 8.15547 17.3148 8.5 18 8.5C18.1919 8.5 18.3774 8.47298 18.5531 8.42254L18.546 8.35899C18.3938 6.98875 17.8283 5.75555 16.9821 4.77804Z" fill="white"/>
<path d="M9.10222 18.1647C9.27315 19.1215 9.64978 19.967 10.1737 20.5701C10.6976 21.1731 11.3396 21.5 12 21.5C12.6604 21.5 13.3024 21.1731 13.8263 20.5701C14.3502 19.967 14.7269 19.1215 14.8978 18.1647" stroke="white" stroke-width="2" stroke-linecap="round"/>
<circle cx="18" cy="6.5" r="2.5" fill="white" stroke="white"/>
</svg>
