<svg width="25" height="26" viewBox="0 0 25 26" fill="none" xmlns="http://www.w3.org/2000/svg">
<path d="M13.7204 3.625H9.37504C7.41086 3.625 6.42876 3.625 5.81857 4.23519C5.20837 4.84539 5.20837 5.82748 5.20837 7.79167V18.2083C5.20837 20.1725 5.20837 21.1546 5.81857 21.7648C6.42876 22.375 7.41086 22.375 9.37504 22.375H15.625C17.5892 22.375 18.5713 22.375 19.1815 21.7648C19.7917 21.1546 19.7917 20.1725 19.7917 18.2083V9.69628C19.7917 9.2705 19.7917 9.05761 19.7124 8.86618C19.6331 8.67475 19.4826 8.52421 19.1815 8.22314L15.1936 4.23519C14.8925 3.93412 14.742 3.78358 14.5505 3.70429C14.3591 3.625 14.1462 3.625 13.7204 3.625Z" stroke="white" stroke-width="2"/>
<path d="M9.375 14.0416L15.625 14.0416" stroke="white" stroke-width="2" stroke-linecap="round"/>
<path d="M9.375 18.2084L13.5417 18.2084" stroke="white" stroke-width="2" stroke-linecap="round"/>
<path d="M13.5416 3.625V7.79167C13.5416 8.77376 13.5416 9.26481 13.8467 9.5699C14.1518 9.875 14.6429 9.875 15.625 9.875H19.7916" stroke="white" stroke-width="2"/>
</svg>
