<svg width="25" height="26" viewBox="0 0 25 26" fill="none" xmlns="http://www.w3.org/2000/svg">
<path d="M3.16506 14.9445C2.63635 13.994 2.37199 13.5188 2.37199 13C2.37199 12.4811 2.63635 12.0059 3.16506 11.0555L4.6156 8.44788L6.14856 5.88788C6.70731 4.95478 6.98669 4.48824 7.43602 4.22882C7.88535 3.96939 8.42908 3.96072 9.51654 3.94338L12.5 3.89579L15.4835 3.94338C16.571 3.96072 17.1147 3.96939 17.5641 4.22881C18.0134 4.48824 18.2928 4.95478 18.8515 5.88788L20.3845 8.44788L21.835 11.0555C22.3637 12.0059 22.6281 12.4811 22.6281 13C22.6281 13.5188 22.3637 13.994 21.835 14.9445L20.3845 17.552L18.8515 20.112C18.2928 21.0451 18.0134 21.5117 17.5641 21.7711C17.1147 22.0305 16.571 22.0392 15.4835 22.0565L12.5 22.1041L9.51654 22.0565C8.42908 22.0392 7.88535 22.0305 7.43602 21.7711C6.98669 21.5117 6.70731 21.0451 6.14856 20.112L4.6156 17.552L3.16506 14.9445Z" stroke="white" stroke-width="2"/>
<circle cx="12.5" cy="13" r="3.125" stroke="white" stroke-width="2"/>
</svg>
