<svg width="37" height="36" viewBox="0 0 37 36" fill="none" xmlns="http://www.w3.org/2000/svg">
<path d="M1.5 10.283V3C1.5 1.89543 2.39543 1 3.5 1H33.5C34.6046 1 35.5 1.89543 35.5 3V10.283M1.5 10.283H11.3658C12.4703 10.283 13.3658 11.1784 13.3658 12.283V19.1461C13.3658 20.2506 14.2612 21.1461 15.3658 21.1461H21.406C22.5106 21.1461 23.406 20.2506 23.406 19.1461V12.283C23.406 11.1784 24.3015 10.283 25.406 10.283H35.5M1.5 10.283V23.5162M35.5 10.283V30.1825C35.5 31.0385 34.9539 31.8022 34.1401 32.0681C22.2635 35.9486 15.0075 36.0065 2.86341 32.0662C2.04773 31.8015 1.5 31.037 1.5 30.1795V23.5162M1.5 23.5162C7.96698 26.3618 6.45003 27.9512 17.1485 27.6057" stroke="white" stroke-width="2"/>
</svg>
