<svg width="25" height="26" viewBox="0 0 25 26" fill="none" xmlns="http://www.w3.org/2000/svg">
<rect x="2.08337" y="3.625" width="20.8333" height="9.375" rx="2" stroke="white" stroke-width="2"/>
<path d="M16.6667 19.25V19.25C16.6667 19.3274 16.6667 19.3661 16.6656 19.3988C16.6312 20.452 15.7854 21.2978 14.7321 21.3323C14.6994 21.3334 14.6607 21.3334 14.5834 21.3334H10.4167C10.3393 21.3334 10.3006 21.3334 10.2679 21.3323C9.21471 21.2978 8.36892 20.452 8.33444 19.3988C8.33337 19.3661 8.33337 19.3274 8.33337 19.25V19.25" stroke="white" stroke-width="2"/>
<path d="M19.7917 15.0833V15.0833C19.7917 15.1607 19.7917 15.1994 19.7906 15.2321C19.7562 16.2853 18.9104 17.1311 17.8571 17.1656C17.8244 17.1666 17.7858 17.1666 17.7084 17.1666H7.29171C7.21433 17.1666 7.17565 17.1666 7.14294 17.1656C6.08971 17.1311 5.24392 16.2853 5.20944 15.2321C5.20837 15.1994 5.20837 15.1607 5.20837 15.0833V15.0833" stroke="white" stroke-width="2"/>
</svg>
