<svg width="229" height="98" viewBox="0 0 229 98" fill="none" xmlns="http://www.w3.org/2000/svg">
<path d="M25.44 79.28C20.7467 79.28 16.2133 78.7467 11.84 77.68C7.46667 76.6133 3.86667 75.2267 1.04 73.52L7.12 59.76C9.78667 61.3067 12.7467 62.56 16 63.52C19.3067 64.4267 22.5067 64.88 25.6 64.88C27.4133 64.88 28.8267 64.7733 29.84 64.56C30.9067 64.2933 31.68 63.9467 32.16 63.52C32.64 63.04 32.88 62.48 32.88 61.84C32.88 60.8267 32.32 60.0267 31.2 59.44C30.08 58.8533 28.5867 58.3733 26.72 58C24.9067 57.5733 22.9067 57.1467 20.72 56.72C18.5333 56.24 16.32 55.6267 14.08 54.88C11.8933 54.1333 9.86667 53.1467 8 51.92C6.18667 50.6933 4.72 49.0933 3.6 47.12C2.48 45.0933 1.92 42.5867 1.92 39.6C1.92 36.1333 2.88 32.9867 4.8 30.16C6.77333 27.28 9.68 24.9867 13.52 23.28C17.4133 21.5733 22.24 20.72 28 20.72C31.7867 20.72 35.52 21.12 39.2 21.92C42.88 22.72 46.1867 23.9467 49.12 25.6L43.44 39.28C40.6667 37.8933 37.9733 36.8533 35.36 36.16C32.8 35.4667 30.2933 35.12 27.84 35.12C26.0267 35.12 24.5867 35.28 23.52 35.6C22.4533 35.92 21.68 36.3467 21.2 36.88C20.7733 37.4133 20.56 38 20.56 38.64C20.56 39.6 21.12 40.3733 22.24 40.96C23.36 41.4933 24.8267 41.9467 26.64 42.32C28.5067 42.6933 30.5333 43.0933 32.72 43.52C34.96 43.9467 37.1733 44.5333 39.36 45.28C41.5467 46.0267 43.5467 47.0133 45.36 48.24C47.2267 49.4667 48.72 51.0667 49.84 53.04C50.96 55.0133 51.52 57.4667 51.52 60.4C51.52 63.8133 50.5333 66.96 48.56 69.84C46.64 72.6667 43.76 74.96 39.92 76.72C36.08 78.4267 31.2533 79.28 25.44 79.28Z" fill="black"/>
<path d="M63.104 38.88H78.08V47.04H63.104V38.88ZM63.872 51.456H80.672V60H52.736V26.4H80.048V34.944H63.872V51.456ZM85.0329 60V26.4H94.3449L111.433 46.848H107.113V26.4H118.153V60H108.841L91.7529 39.552H96.0729V60H85.0329ZM130.907 60V35.184H121.067V26.4H152.075V35.184H142.235V60H130.907ZM155.017 60V26.4H171.193C174.329 26.4 177.033 26.912 179.305 27.936C181.609 28.96 183.385 30.432 184.633 32.352C185.881 34.24 186.505 36.48 186.505 39.072C186.505 41.664 185.881 43.904 184.633 45.792C183.385 47.648 181.609 49.072 179.305 50.064C177.033 51.056 174.329 51.552 171.193 51.552H161.305L166.345 46.896V60H155.017ZM175.129 60L166.873 47.76H178.873L187.225 60H175.129ZM166.345 48.144L161.305 43.008H170.473C172.041 43.008 173.193 42.656 173.929 41.952C174.697 41.248 175.081 40.288 175.081 39.072C175.081 37.856 174.697 36.896 173.929 36.192C173.193 35.488 172.041 35.136 170.473 35.136H161.305L166.345 30V48.144ZM208.399 60.768C205.679 60.768 203.151 60.336 200.815 59.472C198.511 58.608 196.511 57.392 194.815 55.824C193.119 54.224 191.791 52.352 190.831 50.208C189.903 48.064 189.439 45.728 189.439 43.2C189.439 40.64 189.903 38.304 190.831 36.192C191.791 34.048 193.119 32.192 194.815 30.624C196.511 29.024 198.511 27.792 200.815 26.928C203.151 26.064 205.679 25.632 208.399 25.632C211.151 25.632 213.679 26.064 215.983 26.928C218.287 27.792 220.287 29.024 221.983 30.624C223.679 32.192 224.991 34.048 225.919 36.192C226.879 38.304 227.359 40.64 227.359 43.2C227.359 45.728 226.879 48.064 225.919 50.208C224.991 52.352 223.679 54.224 221.983 55.824C220.287 57.392 218.287 58.608 215.983 59.472C213.679 60.336 211.151 60.768 208.399 60.768ZM208.399 51.6C209.455 51.6 210.431 51.408 211.327 51.024C212.255 50.64 213.055 50.096 213.727 49.392C214.431 48.656 214.975 47.776 215.359 46.752C215.743 45.696 215.935 44.512 215.935 43.2C215.935 41.888 215.743 40.72 215.359 39.696C214.975 38.64 214.431 37.76 213.727 37.056C213.055 36.32 212.255 35.76 211.327 35.376C210.431 34.992 209.455 34.8 208.399 34.8C207.343 34.8 206.351 34.992 205.423 35.376C204.527 35.76 203.727 36.32 203.023 37.056C202.351 37.76 201.823 38.64 201.439 39.696C201.055 40.72 200.863 41.888 200.863 43.2C200.863 44.512 201.055 45.696 201.439 46.752C201.823 47.776 202.351 48.656 203.023 49.392C203.727 50.096 204.527 50.64 205.423 51.024C206.351 51.408 207.343 51.6 208.399 51.6Z" fill="black"/>
<path d="M49.81 77L52.87 70H55.19L58.25 77H55.81L53.55 71.12H54.47L52.21 77H49.81ZM51.63 75.78L52.23 74.08H55.45L56.05 75.78H51.63ZM61.8302 77.16C60.7568 77.16 59.9202 76.87 59.3202 76.29C58.7202 75.71 58.4202 74.8967 58.4202 73.85V70H60.7802V73.78C60.7802 74.3133 60.8768 74.6933 61.0702 74.92C61.2635 75.14 61.5235 75.25 61.8502 75.25C62.1835 75.25 62.4435 75.14 62.6302 74.92C62.8235 74.6933 62.9202 74.3133 62.9202 73.78V70H65.2402V73.85C65.2402 74.8967 64.9402 75.71 64.3402 76.29C63.7402 76.87 62.9035 77.16 61.8302 77.16ZM67.7443 77V71.83H65.6943V70H72.1543V71.83H70.1043V77H67.7443ZM76.3396 77.16C75.7729 77.16 75.2463 77.07 74.7596 76.89C74.2796 76.71 73.8629 76.4567 73.5096 76.13C73.1563 75.7967 72.8796 75.4067 72.6796 74.96C72.4863 74.5133 72.3896 74.0267 72.3896 73.5C72.3896 72.9667 72.4863 72.48 72.6796 72.04C72.8796 71.5933 73.1563 71.2067 73.5096 70.88C73.8629 70.5467 74.2796 70.29 74.7596 70.11C75.2463 69.93 75.7729 69.84 76.3396 69.84C76.9129 69.84 77.4396 69.93 77.9196 70.11C78.3996 70.29 78.8163 70.5467 79.1696 70.88C79.5229 71.2067 79.7963 71.5933 79.9896 72.04C80.1896 72.48 80.2896 72.9667 80.2896 73.5C80.2896 74.0267 80.1896 74.5133 79.9896 74.96C79.7963 75.4067 79.5229 75.7967 79.1696 76.13C78.8163 76.4567 78.3996 76.71 77.9196 76.89C77.4396 77.07 76.9129 77.16 76.3396 77.16ZM76.3396 75.25C76.5596 75.25 76.7629 75.21 76.9496 75.13C77.1429 75.05 77.3096 74.9367 77.4496 74.79C77.5963 74.6367 77.7096 74.4533 77.7896 74.24C77.8696 74.02 77.9096 73.7733 77.9096 73.5C77.9096 73.2267 77.8696 72.9833 77.7896 72.77C77.7096 72.55 77.5963 72.3667 77.4496 72.22C77.3096 72.0667 77.1429 71.95 76.9496 71.87C76.7629 71.79 76.5596 71.75 76.3396 71.75C76.1196 71.75 75.9129 71.79 75.7196 71.87C75.5329 71.95 75.3663 72.0667 75.2196 72.22C75.0796 72.3667 74.9696 72.55 74.8896 72.77C74.8096 72.9833 74.7696 73.2267 74.7696 73.5C74.7696 73.7733 74.8096 74.02 74.8896 74.24C74.9696 74.4533 75.0796 74.6367 75.2196 74.79C75.3663 74.9367 75.5329 75.05 75.7196 75.13C75.9129 75.21 76.1196 75.25 76.3396 75.25ZM84.1442 77V70H87.5142C88.1676 70 88.7309 70.1067 89.2042 70.32C89.6842 70.5333 90.0542 70.84 90.3142 71.24C90.5742 71.6333 90.7042 72.1 90.7042 72.64C90.7042 73.18 90.5742 73.6467 90.3142 74.04C90.0542 74.4333 89.6842 74.74 89.2042 74.96C88.7309 75.1733 88.1676 75.28 87.5142 75.28H85.4542L86.5042 74.27V77H84.1442ZM86.5042 74.53L85.4542 73.46H87.3642C87.6909 73.46 87.9309 73.3867 88.0842 73.24C88.2442 73.0933 88.3242 72.8933 88.3242 72.64C88.3242 72.3867 88.2442 72.1867 88.0842 72.04C87.9309 71.8933 87.6909 71.82 87.3642 71.82H85.4542L86.5042 70.75V74.53ZM90.3666 77L93.4266 70H95.7466L98.8066 77H96.3666L94.1066 71.12H95.0266L92.7666 77H90.3666ZM92.1866 75.78L92.7866 74.08H96.0066L96.6066 75.78H92.1866ZM99.1833 77V70H102.553C103.207 70 103.77 70.1067 104.243 70.32C104.723 70.5333 105.093 70.84 105.353 71.24C105.613 71.6333 105.743 72.1 105.743 72.64C105.743 73.18 105.613 73.6467 105.353 74.04C105.093 74.4267 104.723 74.7233 104.243 74.93C103.77 75.1367 103.207 75.24 102.553 75.24H100.493L101.543 74.27V77H99.1833ZM103.373 77L101.653 74.45H104.153L105.893 77H103.373ZM101.543 74.53L100.493 73.46H102.403C102.73 73.46 102.97 73.3867 103.123 73.24C103.283 73.0933 103.363 72.8933 103.363 72.64C103.363 72.3867 103.283 72.1867 103.123 72.04C102.97 71.8933 102.73 71.82 102.403 71.82H100.493L101.543 70.75V74.53ZM108.057 77V71.83H106.007V70H112.467V71.83H110.417V77H108.057ZM115.69 77.16C115.103 77.16 114.536 77.0933 113.99 76.96C113.443 76.8267 112.993 76.6533 112.64 76.44L113.4 74.72C113.733 74.9133 114.103 75.07 114.51 75.19C114.923 75.3033 115.323 75.36 115.71 75.36C115.936 75.36 116.113 75.3467 116.24 75.32C116.373 75.2867 116.47 75.2433 116.53 75.19C116.59 75.13 116.62 75.06 116.62 74.98C116.62 74.8533 116.55 74.7533 116.41 74.68C116.27 74.6067 116.083 74.5467 115.85 74.5C115.623 74.4467 115.373 74.3933 115.1 74.34C114.826 74.28 114.55 74.2033 114.27 74.11C113.996 74.0167 113.743 73.8933 113.51 73.74C113.283 73.5867 113.1 73.3867 112.96 73.14C112.82 72.8867 112.75 72.5733 112.75 72.2C112.75 71.7667 112.87 71.3733 113.11 71.02C113.356 70.66 113.72 70.3733 114.2 70.16C114.686 69.9467 115.29 69.84 116.01 69.84C116.483 69.84 116.95 69.89 117.41 69.99C117.87 70.09 118.283 70.2433 118.65 70.45L117.94 72.16C117.593 71.9867 117.256 71.8567 116.93 71.77C116.61 71.6833 116.296 71.64 115.99 71.64C115.763 71.64 115.583 71.66 115.45 71.7C115.316 71.74 115.22 71.7933 115.16 71.86C115.106 71.9267 115.08 72 115.08 72.08C115.08 72.2 115.15 72.2967 115.29 72.37C115.43 72.4367 115.613 72.4933 115.84 72.54C116.073 72.5867 116.326 72.6367 116.6 72.69C116.88 72.7433 117.156 72.8167 117.43 72.91C117.703 73.0033 117.953 73.1267 118.18 73.28C118.413 73.4333 118.6 73.6333 118.74 73.88C118.88 74.1267 118.95 74.4333 118.95 74.8C118.95 75.2267 118.826 75.62 118.58 75.98C118.34 76.3333 117.98 76.62 117.5 76.84C117.02 77.0533 116.416 77.16 115.69 77.16ZM125.26 77.16C124.7 77.16 124.2 77.0733 123.76 76.9C123.32 76.72 122.973 76.4767 122.72 76.17C122.467 75.8633 122.34 75.5167 122.34 75.13C122.34 74.7433 122.423 74.4033 122.59 74.11C122.763 73.81 123.027 73.5433 123.38 73.31C123.74 73.07 124.193 72.8467 124.74 72.64C125.073 72.5133 125.333 72.3967 125.52 72.29C125.713 72.1833 125.85 72.0833 125.93 71.99C126.01 71.89 126.05 71.7933 126.05 71.7C126.05 71.5933 126.013 71.5067 125.94 71.44C125.873 71.3733 125.77 71.34 125.63 71.34C125.477 71.34 125.357 71.38 125.27 71.46C125.19 71.5333 125.15 71.6267 125.15 71.74C125.15 71.8133 125.167 71.8867 125.2 71.96C125.24 72.0333 125.313 72.1233 125.42 72.23C125.527 72.33 125.677 72.4633 125.87 72.63L129.55 75.76L128.34 77.13L124.1 73.49C123.873 73.3033 123.687 73.1167 123.54 72.93C123.393 72.7367 123.283 72.5433 123.21 72.35C123.137 72.1567 123.1 71.9633 123.1 71.77C123.1 71.3967 123.203 71.07 123.41 70.79C123.623 70.5033 123.917 70.28 124.29 70.12C124.67 69.96 125.113 69.88 125.62 69.88C126.087 69.88 126.493 69.9533 126.84 70.1C127.187 70.24 127.457 70.4433 127.65 70.71C127.843 70.9767 127.94 71.29 127.94 71.65C127.94 71.97 127.857 72.26 127.69 72.52C127.53 72.78 127.28 73.0167 126.94 73.23C126.607 73.4433 126.183 73.6467 125.67 73.84C125.403 73.94 125.187 74.0433 125.02 74.15C124.853 74.2567 124.733 74.37 124.66 74.49C124.587 74.6033 124.55 74.7333 124.55 74.88C124.55 74.9867 124.583 75.0867 124.65 75.18C124.723 75.2733 124.823 75.3467 124.95 75.4C125.083 75.4533 125.243 75.48 125.43 75.48C125.79 75.48 126.127 75.3867 126.44 75.2C126.76 75.0067 127.033 74.73 127.26 74.37C127.493 74.01 127.653 73.58 127.74 73.08L129.55 73.62C129.397 74.3067 129.117 74.9167 128.71 75.45C128.31 75.9833 127.813 76.4033 127.22 76.71C126.633 77.01 125.98 77.16 125.26 77.16ZM136.032 77.16C135.445 77.16 134.878 77.0933 134.332 76.96C133.785 76.8267 133.335 76.6533 132.982 76.44L133.742 74.72C134.075 74.9133 134.445 75.07 134.852 75.19C135.265 75.3033 135.665 75.36 136.052 75.36C136.278 75.36 136.455 75.3467 136.582 75.32C136.715 75.2867 136.812 75.2433 136.872 75.19C136.932 75.13 136.962 75.06 136.962 74.98C136.962 74.8533 136.892 74.7533 136.752 74.68C136.612 74.6067 136.425 74.5467 136.192 74.5C135.965 74.4467 135.715 74.3933 135.442 74.34C135.168 74.28 134.892 74.2033 134.612 74.11C134.338 74.0167 134.085 73.8933 133.852 73.74C133.625 73.5867 133.442 73.3867 133.302 73.14C133.162 72.8867 133.092 72.5733 133.092 72.2C133.092 71.7667 133.212 71.3733 133.452 71.02C133.698 70.66 134.062 70.3733 134.542 70.16C135.028 69.9467 135.632 69.84 136.352 69.84C136.825 69.84 137.292 69.89 137.752 69.99C138.212 70.09 138.625 70.2433 138.992 70.45L138.282 72.16C137.935 71.9867 137.598 71.8567 137.272 71.77C136.952 71.6833 136.638 71.64 136.332 71.64C136.105 71.64 135.925 71.66 135.792 71.7C135.658 71.74 135.562 71.7933 135.502 71.86C135.448 71.9267 135.422 72 135.422 72.08C135.422 72.2 135.492 72.2967 135.632 72.37C135.772 72.4367 135.955 72.4933 136.182 72.54C136.415 72.5867 136.668 72.6367 136.942 72.69C137.222 72.7433 137.498 72.8167 137.772 72.91C138.045 73.0033 138.295 73.1267 138.522 73.28C138.755 73.4333 138.942 73.6333 139.082 73.88C139.222 74.1267 139.292 74.4333 139.292 74.8C139.292 75.2267 139.168 75.62 138.922 75.98C138.682 76.3333 138.322 76.62 137.842 76.84C137.362 77.0533 136.758 77.16 136.032 77.16ZM142.154 72.6H145.274V74.3H142.154V72.6ZM142.314 75.22H145.814V77H139.994V70H145.684V71.78H142.314V75.22ZM146.722 77V70H150.092C150.746 70 151.309 70.1067 151.782 70.32C152.262 70.5333 152.632 70.84 152.892 71.24C153.152 71.6333 153.282 72.1 153.282 72.64C153.282 73.18 153.152 73.6467 152.892 74.04C152.632 74.4267 152.262 74.7233 151.782 74.93C151.309 75.1367 150.746 75.24 150.092 75.24H148.032L149.082 74.27V77H146.722ZM150.912 77L149.192 74.45H151.692L153.432 77H150.912ZM149.082 74.53L148.032 73.46H149.942C150.269 73.46 150.509 73.3867 150.662 73.24C150.822 73.0933 150.902 72.8933 150.902 72.64C150.902 72.3867 150.822 72.1867 150.662 72.04C150.509 71.8933 150.269 71.82 149.942 71.82H148.032L149.082 70.75V74.53ZM156.374 77L153.414 70H155.954L158.364 75.91H156.854L159.334 70H161.654L158.694 77H156.374ZM161.888 77V70H164.248V77H161.888ZM169.004 77.16C168.444 77.16 167.924 77.0733 167.444 76.9C166.971 76.72 166.558 76.4667 166.204 76.14C165.858 75.8133 165.588 75.4267 165.394 74.98C165.201 74.5333 165.104 74.04 165.104 73.5C165.104 72.96 165.201 72.4667 165.394 72.02C165.588 71.5733 165.858 71.1867 166.204 70.86C166.558 70.5333 166.971 70.2833 167.444 70.11C167.924 69.93 168.444 69.84 169.004 69.84C169.691 69.84 170.298 69.96 170.824 70.2C171.358 70.44 171.798 70.7867 172.144 71.24L170.654 72.57C170.448 72.31 170.218 72.11 169.964 71.97C169.718 71.8233 169.438 71.75 169.124 71.75C168.878 71.75 168.654 71.79 168.454 71.87C168.254 71.95 168.081 72.0667 167.934 72.22C167.794 72.3733 167.684 72.56 167.604 72.78C167.524 72.9933 167.484 73.2333 167.484 73.5C167.484 73.7667 167.524 74.01 167.604 74.23C167.684 74.4433 167.794 74.6267 167.934 74.78C168.081 74.9333 168.254 75.05 168.454 75.13C168.654 75.21 168.878 75.25 169.124 75.25C169.438 75.25 169.718 75.18 169.964 75.04C170.218 74.8933 170.448 74.69 170.654 74.43L172.144 75.76C171.798 76.2067 171.358 76.5533 170.824 76.8C170.298 77.04 169.691 77.16 169.004 77.16ZM174.986 72.6H178.106V74.3H174.986V72.6ZM175.146 75.22H178.646V77H172.826V70H178.516V71.78H175.146V75.22ZM186.172 77.16C185.612 77.16 185.092 77.0733 184.612 76.9C184.139 76.72 183.726 76.4667 183.372 76.14C183.026 75.8133 182.756 75.4267 182.562 74.98C182.369 74.5333 182.272 74.04 182.272 73.5C182.272 72.96 182.369 72.4667 182.562 72.02C182.756 71.5733 183.026 71.1867 183.372 70.86C183.726 70.5333 184.139 70.2833 184.612 70.11C185.092 69.93 185.612 69.84 186.172 69.84C186.859 69.84 187.466 69.96 187.992 70.2C188.526 70.44 188.966 70.7867 189.312 71.24L187.822 72.57C187.616 72.31 187.386 72.11 187.132 71.97C186.886 71.8233 186.606 71.75 186.292 71.75C186.046 71.75 185.822 71.79 185.622 71.87C185.422 71.95 185.249 72.0667 185.102 72.22C184.962 72.3733 184.852 72.56 184.772 72.78C184.692 72.9933 184.652 73.2333 184.652 73.5C184.652 73.7667 184.692 74.01 184.772 74.23C184.852 74.4433 184.962 74.6267 185.102 74.78C185.249 74.9333 185.422 75.05 185.622 75.13C185.822 75.21 186.046 75.25 186.292 75.25C186.606 75.25 186.886 75.18 187.132 75.04C187.386 74.8933 187.616 74.69 187.822 74.43L189.312 75.76C188.966 76.2067 188.526 76.5533 187.992 76.8C187.466 77.04 186.859 77.16 186.172 77.16ZM192.154 72.6H195.274V74.3H192.154V72.6ZM192.314 75.22H195.814V77H189.994V70H195.684V71.78H192.314V75.22ZM196.722 77V70H198.662L202.222 74.26H201.322V70H203.622V77H201.682L198.122 72.74H199.022V77H196.722ZM206.279 77V71.83H204.229V70H210.689V71.83H208.639V77H206.279ZM213.462 72.6H216.582V74.3H213.462V72.6ZM213.622 75.22H217.122V77H211.302V70H216.992V71.78H213.622V75.22ZM218.031 77V70H221.401C222.054 70 222.618 70.1067 223.091 70.32C223.571 70.5333 223.941 70.84 224.201 71.24C224.461 71.6333 224.591 72.1 224.591 72.64C224.591 73.18 224.461 73.6467 224.201 74.04C223.941 74.4267 223.571 74.7233 223.091 74.93C222.618 75.1367 222.054 75.24 221.401 75.24H219.341L220.391 74.27V77H218.031ZM222.221 77L220.501 74.45H223.001L224.741 77H222.221ZM220.391 74.53L219.341 73.46H221.251C221.578 73.46 221.818 73.3867 221.971 73.24C222.131 73.0933 222.211 72.8933 222.211 72.64C222.211 72.3867 222.131 72.1867 221.971 72.04C221.818 71.8933 221.578 71.82 221.251 71.82H219.341L220.391 70.75V74.53Z" fill="black"/>
</svg>
